<svg data-v-423bf9ae="" xmlns="http://www.w3.org/2000/svg" viewBox="0 0 34.767449578143456 60" class="icon"><!----><!----><!----><!----><g data-v-423bf9ae="" id="6be457db-9d26-4d60-993f-53cc8cf6ee0d" transform="matrix(0.6199179477704121,0,0,0.6199179477704121,-13.585517158161458,-1.394815473102053)" stroke="none" fill="white"><path d="M23.694 98.037v-1zM56.572 43.017l-.824-.547-6.643-4.974.349-.738.015-.031c-.361.657-13.708 24.984-26.899 57.052-.36.967-1.109 3.346-.277 4.544.319.46.817.713 1.402.714.845 0 1.862-.515 3.294-1.666 1.156-.76 16.815-11.479 36.396-46.479.717-1.292 1.314-4.191-1.516-5.963l-4.229-3.312c-.121.161-.24.322-.362.482l-.706.918zm-32.878 55.02v-1 1zm36.986-51.5l.094.065c1.895 1.161 1.049 2.974.864 3.316-19.631 35.09-35.621 45.698-35.78 45.802l-.086.062c-1.015.819-1.586 1.104-1.864 1.201-.026-.513.197-1.595.523-2.475 11.712-28.473 23.56-50.839 26.241-55.809l10.008 7.838zM72.177 10.627l.19-.169.249-.058c2.871-.663 3.302-1.49 3.358-1.649a.42.42 0 0 0-.021-.326l-1.245-1.64a3.045 3.045 0 0 1-3.006 3.507 3.046 3.046 0 0 1-3.043-3.042c0-.972.458-1.838 1.17-2.396a9.26 9.26 0 0 0-1.354.833C60.281 19.1 53.24 33.5 51.614 36.876l4.537 3.397c8.944-11.929 14.077-25.387 14.43-26.328.565-2.31 1.428-3.168 1.596-3.318zm-15.672 26.65a2.982 2.982 0 0 1-2.98-2.979 2.983 2.983 0 0 1 2.98-2.979 2.982 2.982 0 0 1 2.979 2.979 2.984 2.984 0 0 1-2.979 2.979zm7.312-12.776c-1.678 0-3.043-1.365-3.043-3.042s1.365-3.042 3.043-3.042c1.677 0 3.041 1.364 3.041 3.042s-1.364 3.042-3.041 3.042z"></path><path d="M74.534 3.248l-.172-.176c-.682-.545-1.497-.822-2.423-.822-2.383 0-4.752 1.903-4.852 1.983l-.133.108-.089.146c-9.27 15.145-17.088 31.587-17.398 32.24l.014-.026.568-1.028.75.587c1.776-3.686 8.744-17.894 16.918-31.252 0 0 3.704-3.009 6.019-1.157l3.01 3.964s1.735 2.257-3.906 3.559c0 0-.782.694-1.302 2.864 0 0-5.199 14.162-14.687 26.761l.788.617c9.474-12.58 14.784-26.889 14.837-27.034l.034-.111c.302-1.26.689-1.929.879-2.201 2.546-.633 4.008-1.565 4.467-2.845.43-1.198-.24-2.119-.313-2.215l-3.009-3.962z"></path><path d="M71.703 9.292a2.04 2.04 0 0 0 2.041-2.042 2.04 2.04 0 1 0-4.084 0c0 1.128.914 2.042 2.043 2.042zm0-3.084a1.042 1.042 0 1 1-.003 2.085 1.042 1.042 0 0 1 .003-2.085zM56.505 32.318a1.98 1.98 0 1 0-.002 3.958 1.98 1.98 0 0 0 .002-3.958zm0 2.959a.98.98 0 1 1 0-1.96.98.98 0 0 1 0 1.96zM63.817 19.417a2.042 2.042 0 1 0-.002 4.084 2.042 2.042 0 0 0 .002-4.084zm0 3.084a1.043 1.043 0 0 1-1.043-1.042 1.042 1.042 0 1 1 1.043 1.042zM56.483 41.492l-.136.178-5.99-4.485s.156-.331.442-.924l-.75-.587-.568 1.028-.014.026-.015.031-.349.738 6.643 4.974.824.547.706-.917c.122-.16.241-.322.362-.482L56.853 41c-.124.164-.245.329-.37.492z"></path><path d="M56.505 31.318a2.982 2.982 0 0 0-2.98 2.979 2.983 2.983 0 0 0 2.98 2.979 2.982 2.982 0 0 0 2.979-2.979 2.984 2.984 0 0 0-2.979-2.979zm0 4.959a1.98 1.98 0 1 1-.002-3.958 1.98 1.98 0 0 1 .002 3.958zM63.817 18.417c-1.678 0-3.043 1.364-3.043 3.042s1.365 3.042 3.043 3.042c1.677 0 3.041-1.365 3.041-3.042s-1.364-3.042-3.041-3.042zm0 5.084a2.042 2.042 0 1 1-.002-4.084 2.042 2.042 0 0 1 .002 4.084z"></path><path d="M71.539 14.239c.52-2.17 1.302-2.864 1.302-2.864 5.642-1.302 3.906-3.559 3.906-3.559l-3.01-3.964C71.423 2 67.719 5.009 67.719 5.009 59.544 18.368 52.576 32.575 50.8 36.261L56.853 41c9.487-12.599 14.686-26.761 14.686-26.761zm.164-9.031a2.04 2.04 0 0 1 2.041 2.042 2.04 2.04 0 1 1-4.084 0c0-1.128.914-2.042 2.043-2.042zM51.614 36.876C53.24 33.5 60.281 19.1 68.477 5.687a9.382 9.382 0 0 1 1.354-.833 3.038 3.038 0 0 0-1.17 2.396 3.046 3.046 0 0 0 3.043 3.042 3.045 3.045 0 0 0 3.006-3.507l1.245 1.64a.42.42 0 0 1 .021.326c-.057.159-.487.986-3.358 1.649l-.249.058-.19.169c-.168.15-1.031 1.008-1.596 3.319-.353.941-5.485 14.398-14.43 26.328l-4.539-3.398zM56.348 41.67l.136-.178c.125-.163.246-.328.369-.492L50.8 36.261c-.286.593-.442.924-.442.924l5.99 4.485z"></path></g><!----></svg>